<?xml version="1.0" encoding="UTF-8" standalone="no"?>
<!DOCTYPE svg PUBLIC "-//W3C//DTD SVG 1.1//EN" "http://www.w3.org/Graphics/SVG/1.1/DTD/svg11.dtd">
<svg width="100%" height="100%" viewBox="0 0 512 512" version="1.1" xmlns="http://www.w3.org/2000/svg" xmlns:xlink="http://www.w3.org/1999/xlink" xml:space="preserve" xmlns:serif="http://www.serif.com/" style="fill-rule:evenodd;clip-rule:evenodd;stroke-linejoin:round;stroke-miterlimit:2;">
    <g transform="matrix(1,0,0,1,-2636,-603)">
        <g id="Android-Safari-Pinned" transform="matrix(1,0,0,1,-812,603)">
            <rect x="3448" y="0" width="512" height="512" style="fill:none;"/>
            <g transform="matrix(0.660141,0,0,0.660141,2963.3,-811.539)">
                <path d="M1104.32,1286.59C1115.18,1279.44 1129.26,1279.44 1140.12,1286.59L1213.81,1335.13L1301.06,1339.14C1314.6,1339.76 1326.47,1348.38 1331.24,1361.06L1362.01,1442.81L1431.48,1498.31C1441.32,1506.18 1445.53,1519.14 1442.19,1531.29L1418.62,1617.03L1441.9,1701.7C1445.42,1714.49 1440.98,1728.14 1430.62,1736.42L1362.01,1791.24L1330.8,1874.17C1326.29,1886.14 1315.1,1894.27 1302.33,1894.86L1213.81,1898.92L1139.49,1947.87C1129.01,1954.78 1115.43,1954.78 1104.95,1947.87L1030.63,1898.92L941.848,1894.84C929.238,1894.27 918.183,1886.23 913.736,1874.42L882.428,1791.24L812.394,1735.28C802.899,1727.69 798.833,1715.18 802.055,1703.46L825.821,1617.03L801.775,1529.57C798.723,1518.47 802.574,1506.61 811.569,1499.43L882.428,1442.81L913.704,1359.71C918.171,1347.85 929.274,1339.78 941.939,1339.2L1030.63,1335.13L1104.32,1286.59ZM1060.77,1627.39C1067.62,1623.68 1072.93,1618.98 1076.71,1613.27C1080.5,1607.56 1082.39,1601.21 1082.39,1594.22C1082.39,1584.23 1079.21,1576.49 1072.86,1571C1066.51,1565.5 1057.56,1562.76 1046,1562.76L1005.34,1562.97L1006.19,1638.1L1005.34,1670.2L1025.88,1670.2L1025.03,1636.17L1025.03,1633.17L1043.86,1632.96C1048.14,1640.66 1055.49,1652.93 1065.9,1669.77L1069.12,1671.7C1074.68,1671.27 1081.17,1669.99 1088.59,1667.85L1088.81,1665.28C1078.39,1652.43 1069.04,1639.81 1060.77,1627.39ZM1025.24,1616.69L1025.88,1579.02L1040.01,1578.6C1047,1578.88 1052.21,1580.41 1055.63,1583.2C1059.06,1585.98 1060.77,1590.3 1060.77,1596.14C1060.77,1606.99 1055.13,1614.05 1043.86,1617.33L1025.24,1616.69ZM1238.41,1617.55L1239.05,1562.97L1218.29,1562.97L1219.15,1630.18C1219.29,1638.31 1217.22,1644.41 1212.94,1648.48C1208.66,1652.54 1202.38,1654.58 1194.11,1654.58C1177.41,1654.58 1169.14,1646.44 1169.28,1630.18L1170.35,1562.97L1149.59,1562.97L1150.23,1616.91L1150.02,1633.39C1149.73,1645.66 1153.3,1655.11 1160.72,1661.75C1168.14,1668.38 1178.98,1671.7 1193.25,1671.7C1207.66,1671.7 1218.79,1668.34 1226.64,1661.64C1234.49,1654.93 1238.34,1645.51 1238.2,1633.39L1238.41,1617.55ZM938.987,1564.68L937.917,1562.97L858.084,1562.97L856.586,1579.45L858.084,1581.16L879.273,1579.66L888.048,1579.66L888.476,1638.1L887.62,1670.2L908.167,1670.2L907.525,1636.17L907.953,1579.66L916.942,1579.66L937.703,1581.16L938.987,1564.68ZM1382.88,1653.08L1353.99,1653.93L1334.08,1653.72L1333.65,1636.17L1333.87,1623.97L1352.92,1623.76L1373.04,1624.4L1374.32,1608.56L1373.25,1606.85L1354.63,1607.49L1334.08,1607.28L1334.51,1579.45L1355.91,1579.24L1383.1,1580.31L1384.59,1564.68L1383.31,1562.97L1313.96,1562.97L1314.82,1638.1L1313.96,1670.2L1382.67,1670.2L1384.38,1654.58L1382.88,1653.08Z"/>
            </g>
        </g>
    </g>
</svg>
